<svg width="310" height="100" viewBox="0 0 310 100" fill="none" xmlns="http://www.w3.org/2000/svg">
<rect width="310" height="100" fill="black"/>
<path d="M61 20C44.4277 20 31 33.4277 31 50C31 66.5723 44.4277 80 61 80C77.5723 80 91 66.5723 91 50C91 33.4277 77.5723 20 61 20ZM49.6161 63.1103C49.432 63.4243 49.1685 63.6842 48.852 63.8641C48.5356 64.0439 48.1774 64.1373 47.8134 64.1348C47.4424 64.138 47.0779 64.0379 46.7607 63.8455C46.5245 63.7087 46.3177 63.5265 46.1521 63.3095C45.9865 63.0925 45.8654 62.8449 45.7957 62.581C45.726 62.3171 45.7091 62.042 45.746 61.7715C45.7829 61.501 45.8729 61.2405 46.0107 61.0049L48.0585 57.6004C48.162 57.4247 48.3096 57.2791 48.4867 57.1781C48.6639 57.0771 48.8644 57.0241 49.0683 57.0246H49.371C50.8562 57.0246 51.8955 57.9179 52.1982 58.783L49.6161 63.1103ZM66.9531 56.4138L53.5429 56.4286H44.6299C44.3495 56.4298 44.0717 56.374 43.8135 56.2646C43.5553 56.1552 43.322 55.9945 43.1278 55.7923C42.9335 55.59 42.7824 55.3504 42.6835 55.088C42.5847 54.8255 42.5402 54.5458 42.5527 54.2656C42.5955 53.1406 43.5772 52.2888 44.6955 52.2888H51.1562L58.8156 39.2509L56.3353 35.0254C55.7768 34.0625 56.0246 32.7929 56.9821 32.1875C57.2182 32.0348 57.4827 31.9315 57.7598 31.8836C58.0368 31.8358 58.3207 31.8445 58.5943 31.9092C58.8679 31.9738 59.1256 32.0932 59.3519 32.26C59.5782 32.4268 59.7684 32.6377 59.9112 32.8799L61.2371 35.1446H61.2518L62.579 32.8799C62.7219 32.6389 62.9118 32.4292 63.1375 32.2632C63.3632 32.0972 63.62 31.9784 63.8926 31.9138C64.1651 31.8492 64.448 31.8401 64.7241 31.8871C65.0003 31.9341 65.2642 32.0363 65.5 32.1875C66.4522 32.7929 66.6973 34.0625 66.1348 35.0295L63.6545 39.2549L61.2437 43.3652L56.0085 52.2929V52.3076H63.7241C64.6911 52.3076 65.9031 52.8272 66.3933 53.6629L66.4362 53.75C66.8687 54.4853 67.1138 54.9902 67.1138 55.7254C67.1068 55.9642 67.0536 56.1993 66.9571 56.4179L66.9531 56.4138ZM77.3661 56.4286H73.7353V56.4433L76.3897 60.958C76.6752 61.4335 76.7626 62.0021 76.6331 62.5414C76.5036 63.0806 76.1676 63.5475 75.6973 63.8415C75.3713 64.0403 74.997 64.1454 74.6152 64.1455C74.2522 64.1454 73.8954 64.0513 73.5795 63.8725C73.2637 63.6937 72.9994 63.4362 72.8125 63.125L68.8897 56.4473L66.4522 52.2955L63.3076 46.9196C62.8521 46.152 62.6045 45.279 62.5893 44.3865C62.574 43.4941 62.7916 42.6131 63.2205 41.8304C63.842 40.7335 64.3174 40.4455 64.3174 40.4455L71.3125 52.2768H77.3272C78.4522 52.2768 79.4179 53.142 79.4701 54.2522C79.4809 54.5345 79.4346 54.8161 79.3339 55.08C79.2331 55.3439 79.0801 55.5847 78.8839 55.788C78.6878 55.9913 78.4526 56.1528 78.1924 56.2629C77.9323 56.373 77.6526 56.4293 77.3701 56.4286H77.3661Z" fill="url(#paint0_linear_0_140)"/>
<path d="M117.224 54.28H109.928L108.584 58H106.28L112.328 41.368H114.848L120.872 58H118.568L117.224 54.28ZM116.6 52.504L113.576 44.056L110.552 52.504H116.6ZM125.692 47.272C126.124 46.52 126.764 45.896 127.612 45.4C128.476 44.888 129.476 44.632 130.612 44.632C131.78 44.632 132.836 44.912 133.78 45.472C134.74 46.032 135.492 46.824 136.036 47.848C136.58 48.856 136.852 50.032 136.852 51.376C136.852 52.704 136.58 53.888 136.036 54.928C135.492 55.968 134.74 56.776 133.78 57.352C132.836 57.928 131.78 58.216 130.612 58.216C129.492 58.216 128.5 57.968 127.636 57.472C126.788 56.96 126.14 56.328 125.692 55.576V64.24H123.508V44.848H125.692V47.272ZM134.62 51.376C134.62 50.384 134.42 49.52 134.02 48.784C133.62 48.048 133.076 47.488 132.388 47.104C131.716 46.72 130.972 46.528 130.156 46.528C129.356 46.528 128.612 46.728 127.924 47.128C127.252 47.512 126.708 48.08 126.292 48.832C125.892 49.568 125.692 50.424 125.692 51.4C125.692 52.392 125.892 53.264 126.292 54.016C126.708 54.752 127.252 55.32 127.924 55.72C128.612 56.104 129.356 56.296 130.156 56.296C130.972 56.296 131.716 56.104 132.388 55.72C133.076 55.32 133.62 54.752 134.02 54.016C134.42 53.264 134.62 52.384 134.62 51.376ZM141.911 47.272C142.343 46.52 142.983 45.896 143.831 45.4C144.695 44.888 145.695 44.632 146.831 44.632C147.999 44.632 149.055 44.912 149.999 45.472C150.959 46.032 151.711 46.824 152.255 47.848C152.799 48.856 153.071 50.032 153.071 51.376C153.071 52.704 152.799 53.888 152.255 54.928C151.711 55.968 150.959 56.776 149.999 57.352C149.055 57.928 147.999 58.216 146.831 58.216C145.711 58.216 144.719 57.968 143.855 57.472C143.007 56.96 142.359 56.328 141.911 55.576V64.24H139.727V44.848H141.911V47.272ZM150.839 51.376C150.839 50.384 150.639 49.52 150.239 48.784C149.839 48.048 149.295 47.488 148.607 47.104C147.935 46.72 147.191 46.528 146.375 46.528C145.575 46.528 144.831 46.728 144.143 47.128C143.471 47.512 142.927 48.08 142.511 48.832C142.111 49.568 141.911 50.424 141.911 51.4C141.911 52.392 142.111 53.264 142.511 54.016C142.927 54.752 143.471 55.32 144.143 55.72C144.831 56.104 145.575 56.296 146.375 56.296C147.191 56.296 147.935 56.104 148.607 55.72C149.295 55.32 149.839 54.752 150.239 54.016C150.639 53.264 150.839 52.384 150.839 51.376ZM167.648 58.168C166.544 58.168 165.552 57.976 164.672 57.592C163.808 57.192 163.128 56.648 162.632 55.96C162.136 55.256 161.88 54.448 161.864 53.536H164.192C164.272 54.32 164.592 54.984 165.152 55.528C165.728 56.056 166.56 56.32 167.648 56.32C168.688 56.32 169.504 56.064 170.096 55.552C170.704 55.024 171.008 54.352 171.008 53.536C171.008 52.896 170.832 52.376 170.48 51.976C170.128 51.576 169.688 51.272 169.16 51.064C168.632 50.856 167.92 50.632 167.024 50.392C165.92 50.104 165.032 49.816 164.36 49.528C163.704 49.24 163.136 48.792 162.656 48.184C162.192 47.56 161.96 46.728 161.96 45.688C161.96 44.776 162.192 43.968 162.656 43.264C163.12 42.56 163.768 42.016 164.6 41.632C165.448 41.248 166.416 41.056 167.504 41.056C169.072 41.056 170.352 41.448 171.344 42.232C172.352 43.016 172.92 44.056 173.048 45.352H170.648C170.568 44.712 170.232 44.152 169.64 43.672C169.048 43.176 168.264 42.928 167.288 42.928C166.376 42.928 165.632 43.168 165.056 43.648C164.48 44.112 164.192 44.768 164.192 45.616C164.192 46.224 164.36 46.72 164.696 47.104C165.048 47.488 165.472 47.784 165.968 47.992C166.48 48.184 167.192 48.408 168.104 48.664C169.208 48.968 170.096 49.272 170.768 49.576C171.44 49.864 172.016 50.32 172.496 50.944C172.976 51.552 173.216 52.384 173.216 53.44C173.216 54.256 173 55.024 172.568 55.744C172.136 56.464 171.496 57.048 170.648 57.496C169.8 57.944 168.8 58.168 167.648 58.168ZM179.094 46.648V54.4C179.094 55.04 179.23 55.496 179.502 55.768C179.774 56.024 180.246 56.152 180.918 56.152H182.526V58H180.558C179.342 58 178.43 57.72 177.822 57.16C177.214 56.6 176.91 55.68 176.91 54.4V46.648H175.206V44.848H176.91V41.536H179.094V44.848H182.526V46.648H179.094ZM190.908 58.216C189.676 58.216 188.556 57.936 187.548 57.376C186.556 56.816 185.772 56.024 185.196 55C184.636 53.96 184.356 52.76 184.356 51.4C184.356 50.056 184.644 48.872 185.22 47.848C185.812 46.808 186.612 46.016 187.62 45.472C188.628 44.912 189.756 44.632 191.004 44.632C192.252 44.632 193.38 44.912 194.388 45.472C195.396 46.016 196.188 46.8 196.764 47.824C197.356 48.848 197.652 50.04 197.652 51.4C197.652 52.76 197.348 53.96 196.74 55C196.148 56.024 195.34 56.816 194.316 57.376C193.292 57.936 192.156 58.216 190.908 58.216ZM190.908 56.296C191.692 56.296 192.428 56.112 193.116 55.744C193.804 55.376 194.356 54.824 194.772 54.088C195.204 53.352 195.42 52.456 195.42 51.4C195.42 50.344 195.212 49.448 194.796 48.712C194.38 47.976 193.836 47.432 193.164 47.08C192.492 46.712 191.764 46.528 190.98 46.528C190.18 46.528 189.444 46.712 188.772 47.08C188.116 47.432 187.588 47.976 187.188 48.712C186.788 49.448 186.588 50.344 186.588 51.4C186.588 52.472 186.78 53.376 187.164 54.112C187.564 54.848 188.092 55.4 188.748 55.768C189.404 56.12 190.124 56.296 190.908 56.296ZM202.708 46.984C203.092 46.232 203.636 45.648 204.34 45.232C205.06 44.816 205.932 44.608 206.956 44.608V46.864H206.38C203.932 46.864 202.708 48.192 202.708 50.848V58H200.524V44.848H202.708V46.984ZM221.477 50.92C221.477 51.336 221.453 51.776 221.405 52.24H210.893C210.973 53.536 211.413 54.552 212.213 55.288C213.029 56.008 214.013 56.368 215.165 56.368C216.109 56.368 216.893 56.152 217.517 55.72C218.157 55.272 218.605 54.68 218.861 53.944H221.213C220.861 55.208 220.157 56.24 219.101 57.04C218.045 57.824 216.733 58.216 215.165 58.216C213.917 58.216 212.797 57.936 211.805 57.376C210.829 56.816 210.061 56.024 209.501 55C208.941 53.96 208.661 52.76 208.661 51.4C208.661 50.04 208.933 48.848 209.477 47.824C210.021 46.8 210.781 46.016 211.757 45.472C212.749 44.912 213.885 44.632 215.165 44.632C216.413 44.632 217.517 44.904 218.477 45.448C219.437 45.992 220.173 46.744 220.685 47.704C221.213 48.648 221.477 49.72 221.477 50.92ZM219.221 50.464C219.221 49.632 219.037 48.92 218.669 48.328C218.301 47.72 217.797 47.264 217.157 46.96C216.533 46.64 215.837 46.48 215.069 46.48C213.965 46.48 213.021 46.832 212.237 47.536C211.469 48.24 211.029 49.216 210.917 50.464H219.221Z" fill="white"/>
<defs>
<linearGradient id="paint0_linear_0_140" x1="61" y1="20" x2="61" y2="80" gradientUnits="userSpaceOnUse">
<stop stop-color="#15C9FB"/>
<stop offset="1" stop-color="#1977F3"/>
</linearGradient>
</defs>
</svg>
