<svg width="310" height="100" viewBox="0 0 310 100" fill="none" xmlns="http://www.w3.org/2000/svg">
<rect width="310" height="100" fill="black"/>
<path d="M31 23.682V76.3152C31.0004 76.4294 31.0344 76.5409 31.0979 76.6358C31.1614 76.7308 31.2515 76.8048 31.3569 76.8487C31.4623 76.8926 31.5784 76.9044 31.6905 76.8827C31.8025 76.8609 31.9057 76.8065 31.987 76.7263L59.3925 49.9999L31.987 23.2708C31.9057 23.1906 31.8025 23.1363 31.6905 23.1145C31.5784 23.0927 31.4623 23.1045 31.3569 23.1484C31.2515 23.1923 31.1614 23.2664 31.0979 23.3613C31.0344 23.4562 31.0004 23.5678 31 23.682Z" fill="#3BCCFF"/>
<path d="M70.8834 39.018L36.5205 20.0861L36.4991 20.0741C35.9071 19.7526 35.3446 20.5535 35.8294 21.0196L62.7661 46.7764L70.8834 39.018Z" fill="#48FF48"/>
<path d="M35.8321 78.9804C35.3446 79.4464 35.9071 80.2473 36.5017 79.9259L36.5232 79.9138L70.8834 60.9819L62.7661 53.2209L35.8321 78.9804Z" fill="#FF3333"/>
<path d="M84.7556 46.6518L75.1597 41.3671L66.1371 50L75.1597 58.6289L84.7556 53.3482C87.3658 51.9058 87.3658 48.0942 84.7556 46.6518Z" fill="#FFD400"/>
<path d="M115.565 46.12C115.101 45.144 114.429 44.392 113.549 43.864C112.669 43.32 111.645 43.048 110.477 43.048C109.309 43.048 108.253 43.32 107.309 43.864C106.381 44.392 105.645 45.16 105.101 46.168C104.573 47.16 104.309 48.312 104.309 49.624C104.309 50.936 104.573 52.088 105.101 53.08C105.645 54.072 106.381 54.84 107.309 55.384C108.253 55.912 109.309 56.176 110.477 56.176C112.109 56.176 113.453 55.688 114.509 54.712C115.565 53.736 116.181 52.416 116.357 50.752H109.685V48.976H118.685V50.656C118.557 52.032 118.125 53.296 117.389 54.448C116.653 55.584 115.685 56.488 114.485 57.16C113.285 57.816 111.949 58.144 110.477 58.144C108.925 58.144 107.509 57.784 106.229 57.064C104.949 56.328 103.933 55.312 103.181 54.016C102.445 52.72 102.077 51.256 102.077 49.624C102.077 47.992 102.445 46.528 103.181 45.232C103.933 43.92 104.949 42.904 106.229 42.184C107.509 41.448 108.925 41.08 110.477 41.08C112.253 41.08 113.821 41.52 115.181 42.4C116.557 43.28 117.557 44.52 118.181 46.12H115.565ZM127.309 58.216C126.077 58.216 124.957 57.936 123.949 57.376C122.957 56.816 122.173 56.024 121.597 55C121.037 53.96 120.757 52.76 120.757 51.4C120.757 50.056 121.045 48.872 121.621 47.848C122.213 46.808 123.013 46.016 124.021 45.472C125.029 44.912 126.157 44.632 127.405 44.632C128.653 44.632 129.781 44.912 130.789 45.472C131.797 46.016 132.589 46.8 133.165 47.824C133.757 48.848 134.053 50.04 134.053 51.4C134.053 52.76 133.749 53.96 133.141 55C132.549 56.024 131.741 56.816 130.717 57.376C129.693 57.936 128.557 58.216 127.309 58.216ZM127.309 56.296C128.093 56.296 128.829 56.112 129.517 55.744C130.205 55.376 130.757 54.824 131.173 54.088C131.605 53.352 131.821 52.456 131.821 51.4C131.821 50.344 131.613 49.448 131.197 48.712C130.781 47.976 130.237 47.432 129.565 47.08C128.893 46.712 128.165 46.528 127.381 46.528C126.581 46.528 125.845 46.712 125.173 47.08C124.517 47.432 123.989 47.976 123.589 48.712C123.189 49.448 122.989 50.344 122.989 51.4C122.989 52.472 123.181 53.376 123.565 54.112C123.965 54.848 124.493 55.4 125.149 55.768C125.805 56.12 126.525 56.296 127.309 56.296ZM142.66 58.216C141.428 58.216 140.308 57.936 139.3 57.376C138.308 56.816 137.524 56.024 136.948 55C136.388 53.96 136.108 52.76 136.108 51.4C136.108 50.056 136.396 48.872 136.972 47.848C137.564 46.808 138.364 46.016 139.372 45.472C140.38 44.912 141.508 44.632 142.756 44.632C144.004 44.632 145.132 44.912 146.14 45.472C147.148 46.016 147.94 46.8 148.516 47.824C149.108 48.848 149.404 50.04 149.404 51.4C149.404 52.76 149.1 53.96 148.492 55C147.9 56.024 147.092 56.816 146.068 57.376C145.044 57.936 143.908 58.216 142.66 58.216ZM142.66 56.296C143.444 56.296 144.18 56.112 144.868 55.744C145.556 55.376 146.108 54.824 146.524 54.088C146.956 53.352 147.172 52.456 147.172 51.4C147.172 50.344 146.964 49.448 146.548 48.712C146.132 47.976 145.588 47.432 144.916 47.08C144.244 46.712 143.516 46.528 142.732 46.528C141.932 46.528 141.196 46.712 140.524 47.08C139.868 47.432 139.34 47.976 138.94 48.712C138.54 49.448 138.34 50.344 138.34 51.4C138.34 52.472 138.532 53.376 138.916 54.112C139.316 54.848 139.844 55.4 140.5 55.768C141.156 56.12 141.876 56.296 142.66 56.296ZM157.7 44.632C158.836 44.632 159.828 44.88 160.676 45.376C161.54 45.872 162.18 46.496 162.596 47.248V44.848H164.804V58.288C164.804 59.488 164.548 60.552 164.036 61.48C163.524 62.424 162.788 63.16 161.828 63.688C160.884 64.216 159.78 64.48 158.516 64.48C156.788 64.48 155.348 64.072 154.196 63.256C153.044 62.44 152.364 61.328 152.156 59.92H154.316C154.556 60.72 155.052 61.36 155.804 61.84C156.556 62.336 157.46 62.584 158.516 62.584C159.716 62.584 160.692 62.208 161.444 61.456C162.212 60.704 162.596 59.648 162.596 58.288V55.528C162.164 56.296 161.524 56.936 160.676 57.448C159.828 57.96 158.836 58.216 157.7 58.216C156.532 58.216 155.468 57.928 154.508 57.352C153.564 56.776 152.82 55.968 152.276 54.928C151.732 53.888 151.46 52.704 151.46 51.376C151.46 50.032 151.732 48.856 152.276 47.848C152.82 46.824 153.564 46.032 154.508 45.472C155.468 44.912 156.532 44.632 157.7 44.632ZM162.596 51.4C162.596 50.408 162.396 49.544 161.996 48.808C161.596 48.072 161.052 47.512 160.364 47.128C159.692 46.728 158.948 46.528 158.132 46.528C157.316 46.528 156.572 46.72 155.9 47.104C155.228 47.488 154.692 48.048 154.292 48.784C153.892 49.52 153.692 50.384 153.692 51.376C153.692 52.384 153.892 53.264 154.292 54.016C154.692 54.752 155.228 55.32 155.9 55.72C156.572 56.104 157.316 56.296 158.132 56.296C158.948 56.296 159.692 56.104 160.364 55.72C161.052 55.32 161.596 54.752 161.996 54.016C162.396 53.264 162.596 52.392 162.596 51.4ZM170.679 40.24V58H168.495V40.24H170.679ZM186.401 50.92C186.401 51.336 186.377 51.776 186.329 52.24H175.817C175.897 53.536 176.337 54.552 177.137 55.288C177.953 56.008 178.937 56.368 180.089 56.368C181.033 56.368 181.817 56.152 182.441 55.72C183.081 55.272 183.529 54.68 183.785 53.944H186.137C185.785 55.208 185.081 56.24 184.025 57.04C182.969 57.824 181.657 58.216 180.089 58.216C178.841 58.216 177.721 57.936 176.729 57.376C175.753 56.816 174.985 56.024 174.425 55C173.865 53.96 173.585 52.76 173.585 51.4C173.585 50.04 173.857 48.848 174.401 47.824C174.945 46.8 175.705 46.016 176.681 45.472C177.673 44.912 178.809 44.632 180.089 44.632C181.337 44.632 182.441 44.904 183.401 45.448C184.361 45.992 185.097 46.744 185.609 47.704C186.137 48.648 186.401 49.72 186.401 50.92ZM184.145 50.464C184.145 49.632 183.961 48.92 183.593 48.328C183.225 47.72 182.721 47.264 182.081 46.96C181.457 46.64 180.761 46.48 179.993 46.48C178.889 46.48 177.945 46.832 177.161 47.536C176.393 48.24 175.953 49.216 175.841 50.464H184.145ZM206.866 46.168C206.866 47.56 206.386 48.72 205.426 49.648C204.482 50.56 203.034 51.016 201.082 51.016H197.866V58H195.682V41.272H201.082C202.97 41.272 204.402 41.728 205.378 42.64C206.37 43.552 206.866 44.728 206.866 46.168ZM201.082 49.216C202.298 49.216 203.194 48.952 203.77 48.424C204.346 47.896 204.634 47.144 204.634 46.168C204.634 44.104 203.45 43.072 201.082 43.072H197.866V49.216H201.082ZM211.765 40.24V58H209.581V40.24H211.765ZM214.671 51.376C214.671 50.032 214.943 48.856 215.487 47.848C216.031 46.824 216.775 46.032 217.719 45.472C218.679 44.912 219.743 44.632 220.911 44.632C222.063 44.632 223.063 44.88 223.911 45.376C224.759 45.872 225.391 46.496 225.807 47.248V44.848H228.015V58H225.807V55.552C225.375 56.32 224.727 56.96 223.863 57.472C223.015 57.968 222.023 58.216 220.887 58.216C219.719 58.216 218.663 57.928 217.719 57.352C216.775 56.776 216.031 55.968 215.487 54.928C214.943 53.888 214.671 52.704 214.671 51.376ZM225.807 51.4C225.807 50.408 225.607 49.544 225.207 48.808C224.807 48.072 224.263 47.512 223.575 47.128C222.903 46.728 222.159 46.528 221.343 46.528C220.527 46.528 219.783 46.72 219.111 47.104C218.439 47.488 217.903 48.048 217.503 48.784C217.103 49.52 216.903 50.384 216.903 51.376C216.903 52.384 217.103 53.264 217.503 54.016C217.903 54.752 218.439 55.32 219.111 55.72C219.783 56.104 220.527 56.296 221.343 56.296C222.159 56.296 222.903 56.104 223.575 55.72C224.263 55.32 224.807 54.752 225.207 54.016C225.607 53.264 225.807 52.392 225.807 51.4ZM243.034 44.848L235.114 64.192H232.858L235.45 57.856L230.146 44.848H232.57L236.698 55.504L240.778 44.848H243.034Z" fill="white"/>
</svg>
